<?xml version="1.0" encoding="UTF-8" standalone="no"?>
<!DOCTYPE svg PUBLIC "-//W3C//DTD SVG 1.1//EN"
 "http://www.w3.org/Graphics/SVG/1.1/DTD/svg11.dtd">
<!-- Generated by graphviz version 2.38.0 (20140413.2041)
 -->
<!-- Title: G Pages: 1 -->
<svg width="881pt" height="1568pt"
 viewBox="0.00 0.00 881.00 1568.00" xmlns="http://www.w3.org/2000/svg" xmlns:xlink="http://www.w3.org/1999/xlink">
<g id="graph0" class="graph" transform="scale(1 1) rotate(0) translate(4 1564)">
<title>G</title>
<polygon fill="white" stroke="none" points="-4,4 -4,-1564 877,-1564 877,4 -4,4"/>
<g id="clust1" class="cluster"><title>cluster_Global</title>
<path fill="none" stroke="gray" d="M20,-8C20,-8 853,-8 853,-8 859,-8 865,-14 865,-20 865,-20 865,-1540 865,-1540 865,-1546 859,-1552 853,-1552 853,-1552 20,-1552 20,-1552 14,-1552 8,-1546 8,-1540 8,-1540 8,-20 8,-20 8,-14 14,-8 20,-8"/>
<text text-anchor="middle" x="436.5" y="-1539.2" font-family="Times New Roman,serif" font-size="11.00" fill="gray">Global</text>
</g>
<g id="clust2" class="cluster"><title>cluster_\UIoT</title>
<path fill="none" stroke="gray" d="M28,-16C28,-16 845,-16 845,-16 851,-16 857,-22 857,-28 857,-28 857,-1512 857,-1512 857,-1518 851,-1524 845,-1524 845,-1524 28,-1524 28,-1524 22,-1524 16,-1518 16,-1512 16,-1512 16,-28 16,-28 16,-22 22,-16 28,-16"/>
<text text-anchor="middle" x="436.5" y="-1511.2" font-family="Times New Roman,serif" font-size="11.00" fill="gray">UIoT</text>
</g>
<g id="clust3" class="cluster"><title>cluster_\UIoT\Factories</title>
<path fill="none" stroke="gray" d="M686.5,-1208C686.5,-1208 816.5,-1208 816.5,-1208 822.5,-1208 828.5,-1214 828.5,-1220 828.5,-1220 828.5,-1484 828.5,-1484 828.5,-1490 822.5,-1496 816.5,-1496 816.5,-1496 686.5,-1496 686.5,-1496 680.5,-1496 674.5,-1490 674.5,-1484 674.5,-1484 674.5,-1220 674.5,-1220 674.5,-1214 680.5,-1208 686.5,-1208"/>
<text text-anchor="middle" x="751.5" y="-1483.2" font-family="Times New Roman,serif" font-size="11.00" fill="gray">Factories</text>
</g>
<g id="clust4" class="cluster"><title>cluster_\UIoT\Handlers</title>
<path fill="none" stroke="gray" d="M696.5,-1020C696.5,-1020 806.5,-1020 806.5,-1020 812.5,-1020 818.5,-1026 818.5,-1032 818.5,-1032 818.5,-1188 818.5,-1188 818.5,-1194 812.5,-1200 806.5,-1200 806.5,-1200 696.5,-1200 696.5,-1200 690.5,-1200 684.5,-1194 684.5,-1188 684.5,-1188 684.5,-1032 684.5,-1032 684.5,-1026 690.5,-1020 696.5,-1020"/>
<text text-anchor="middle" x="751.5" y="-1187.2" font-family="Times New Roman,serif" font-size="11.00" fill="gray">Handlers</text>
</g>
<g id="clust5" class="cluster"><title>cluster_\UIoT\Interactions</title>
<path fill="none" stroke="gray" d="M666,-616C666,-616 837,-616 837,-616 843,-616 849,-622 849,-628 849,-628 849,-1000 849,-1000 849,-1006 843,-1012 837,-1012 837,-1012 666,-1012 666,-1012 660,-1012 654,-1006 654,-1000 654,-1000 654,-628 654,-628 654,-622 660,-616 666,-616"/>
<text text-anchor="middle" x="751.5" y="-999.2" font-family="Times New Roman,serif" font-size="11.00" fill="gray">Interactions</text>
</g>
<g id="clust6" class="cluster"><title>cluster_\UIoT\Interfaces</title>
<path fill="none" stroke="gray" d="M36,-859C36,-859 180,-859 180,-859 186,-859 192,-865 192,-871 192,-871 192,-1243 192,-1243 192,-1249 186,-1255 180,-1255 180,-1255 36,-1255 36,-1255 30,-1255 24,-1249 24,-1243 24,-1243 24,-871 24,-871 24,-865 30,-859 36,-859"/>
<text text-anchor="middle" x="108" y="-1242.2" font-family="Times New Roman,serif" font-size="11.00" fill="gray">Interfaces</text>
</g>
<g id="clust7" class="cluster"><title>cluster_\UIoT\Managers</title>
<path fill="none" stroke="gray" d="M686.5,-266C686.5,-266 816.5,-266 816.5,-266 822.5,-266 828.5,-272 828.5,-278 828.5,-278 828.5,-596 828.5,-596 828.5,-602 822.5,-608 816.5,-608 816.5,-608 686.5,-608 686.5,-608 680.5,-608 674.5,-602 674.5,-596 674.5,-596 674.5,-278 674.5,-278 674.5,-272 680.5,-266 686.5,-266"/>
<text text-anchor="middle" x="751.5" y="-595.2" font-family="Times New Roman,serif" font-size="11.00" fill="gray">Managers</text>
</g>
<g id="clust9" class="cluster"><title>cluster_\UIoT\Models</title>
<path fill="none" stroke="gray" d="M260,-779C260,-779 594,-779 594,-779 600,-779 606,-785 606,-791 606,-791 606,-1243 606,-1243 606,-1249 600,-1255 594,-1255 594,-1255 260,-1255 260,-1255 254,-1255 248,-1249 248,-1243 248,-1243 248,-791 248,-791 248,-785 254,-779 260,-779"/>
<text text-anchor="middle" x="427" y="-1242.2" font-family="Times New Roman,serif" font-size="11.00" fill="gray">Models</text>
</g>
<g id="clust10" class="cluster"><title>cluster_\UIoT\Models\Settings</title>
<path fill="none" stroke="gray" d="M436,-787C436,-787 586,-787 586,-787 592,-787 598,-793 598,-799 598,-799 598,-901 598,-901 598,-907 592,-913 586,-913 586,-913 436,-913 436,-913 430,-913 424,-907 424,-901 424,-901 424,-799 424,-799 424,-793 430,-787 436,-787"/>
<text text-anchor="middle" x="511" y="-900.2" font-family="Times New Roman,serif" font-size="11.00" fill="gray">Settings</text>
</g>
<g id="clust8" class="cluster"><title>cluster_\UIoT\Mappers</title>
<path fill="none" stroke="gray" d="M717,-24C717,-24 786,-24 786,-24 792,-24 798,-30 798,-36 798,-36 798,-246 798,-246 798,-252 792,-258 786,-258 786,-258 717,-258 717,-258 711,-258 705,-252 705,-246 705,-246 705,-36 705,-36 705,-30 711,-24 717,-24"/>
<text text-anchor="middle" x="751.5" y="-245.2" font-family="Times New Roman,serif" font-size="11.00" fill="gray">Mappers</text>
</g>
<!-- \\UIoT\\Factories\\InstructionFactory -->
<g id="node1" class="node"><title>\\UIoT\\Factories\\InstructionFactory</title>
<polygon fill="none" stroke="black" points="820.5,-1468 682.5,-1468 682.5,-1432 820.5,-1432 820.5,-1468"/>
<text text-anchor="middle" x="751.5" y="-1447.2" font-family="Courier,monospace" font-size="11.00">InstructionFactory</text>
</g>
<!-- \\UIoT\\Models\\FactoryModel -->
<g id="node35" class="node"><title>\\UIoT\\Models\\FactoryModel</title>
<polygon fill="none" stroke="black" points="560,-1011 462,-1011 462,-975 560,-975 560,-1011"/>
<text text-anchor="start" x="477" y="-996.2" font-family="Courier,monospace" font-size="11.00">«abstract»</text>
<text text-anchor="start" x="470" y="-984.2" font-family="Courier,monospace" font-size="11.00">FactoryModel</text>
</g>
<!-- \\UIoT\\Factories\\InstructionFactory&#45;&gt;\\UIoT\\Models\\FactoryModel -->
<g id="edge1" class="edge"><title>\\UIoT\\Factories\\InstructionFactory&#45;&gt;\\UIoT\\Models\\FactoryModel</title>
<path fill="none" stroke="black" d="M682.278,-1441.87C671.501,-1437.74 661.469,-1431.72 654,-1423 536.662,-1286 722.866,-1157.4 606,-1020 596.882,-1009.28 583.815,-1002.67 570.312,-998.636"/>
<polygon fill="none" stroke="black" points="571.007,-995.201 560.453,-996.13 569.282,-1001.99 571.007,-995.201"/>
</g>
<!-- \\UIoT\\Factories\\MessageFactory -->
<g id="node2" class="node"><title>\\UIoT\\Factories\\MessageFactory</title>
<polygon fill="none" stroke="black" points="807,-1414 696,-1414 696,-1378 807,-1378 807,-1414"/>
<text text-anchor="middle" x="751.5" y="-1393.2" font-family="Courier,monospace" font-size="11.00">MessageFactory</text>
</g>
<!-- \\UIoT\\Factories\\MessageFactory&#45;&gt;\\UIoT\\Models\\FactoryModel -->
<g id="edge2" class="edge"><title>\\UIoT\\Factories\\MessageFactory&#45;&gt;\\UIoT\\Models\\FactoryModel</title>
<path fill="none" stroke="black" d="M695.889,-1391.93C680.279,-1388.09 664.636,-1381.19 654,-1369 551.074,-1251.01 708.519,-1138.34 606,-1020 596.785,-1009.36 583.684,-1002.78 570.179,-998.75"/>
<polygon fill="none" stroke="black" points="570.878,-995.316 560.324,-996.24 569.151,-1002.1 570.878,-995.316"/>
</g>
<!-- \\UIoT\\Factories\\PropertyFactory -->
<g id="node3" class="node"><title>\\UIoT\\Factories\\PropertyFactory</title>
<polygon fill="none" stroke="black" points="810.5,-1360 692.5,-1360 692.5,-1324 810.5,-1324 810.5,-1360"/>
<text text-anchor="middle" x="751.5" y="-1339.2" font-family="Courier,monospace" font-size="11.00">PropertyFactory</text>
</g>
<!-- \\UIoT\\Factories\\PropertyFactory&#45;&gt;\\UIoT\\Models\\FactoryModel -->
<g id="edge3" class="edge"><title>\\UIoT\\Factories\\PropertyFactory&#45;&gt;\\UIoT\\Models\\FactoryModel</title>
<path fill="none" stroke="black" d="M692.297,-1336.78C677.972,-1332.78 663.915,-1326.09 654,-1315 565.452,-1215.98 694.207,-1119.32 606,-1020 596.655,-1009.48 583.508,-1002.94 570,-998.906"/>
<polygon fill="none" stroke="black" points="570.705,-995.474 560.15,-996.392 568.974,-1002.26 570.705,-995.474"/>
</g>
<!-- \\UIoT\\Factories\\ResourceFactory -->
<g id="node4" class="node"><title>\\UIoT\\Factories\\ResourceFactory</title>
<polygon fill="none" stroke="black" points="810.5,-1306 692.5,-1306 692.5,-1270 810.5,-1270 810.5,-1306"/>
<text text-anchor="middle" x="751.5" y="-1285.2" font-family="Courier,monospace" font-size="11.00">ResourceFactory</text>
</g>
<!-- \\UIoT\\Factories\\ResourceFactory&#45;&gt;\\UIoT\\Models\\FactoryModel -->
<g id="edge4" class="edge"><title>\\UIoT\\Factories\\ResourceFactory&#45;&gt;\\UIoT\\Models\\FactoryModel</title>
<path fill="none" stroke="black" d="M692.304,-1282.47C678.065,-1278.47 664.05,-1271.85 654,-1261 579.772,-1180.89 679.952,-1100.37 606,-1020 596.563,-1009.74 583.515,-1003.29 570.141,-999.253"/>
<polygon fill="none" stroke="black" points="570.951,-995.847 560.392,-996.721 569.191,-1002.62 570.951,-995.847"/>
</g>
<!-- \\UIoT\\Factories\\SettingsFactory -->
<g id="node5" class="node"><title>\\UIoT\\Factories\\SettingsFactory</title>
<polygon fill="none" stroke="black" points="810.5,-1252 692.5,-1252 692.5,-1216 810.5,-1216 810.5,-1252"/>
<text text-anchor="middle" x="751.5" y="-1231.2" font-family="Courier,monospace" font-size="11.00">SettingsFactory</text>
</g>
<!-- \\UIoT\\Factories\\SettingsFactory&#45;&gt;\\UIoT\\Models\\FactoryModel -->
<g id="edge5" class="edge"><title>\\UIoT\\Factories\\SettingsFactory&#45;&gt;\\UIoT\\Models\\FactoryModel</title>
<path fill="none" stroke="black" d="M692.385,-1226.08C678.231,-1221.63 664.238,-1214.72 654,-1204 595.636,-1142.87 665.024,-1080.49 606,-1020 596.456,-1010.22 583.622,-1003.92 570.51,-999.879"/>
<polygon fill="none" stroke="black" points="571.043,-996.399 560.479,-997.209 569.242,-1003.16 571.043,-996.399"/>
</g>
<!-- \\UIoT\\Handlers\\DatabaseHandler -->
<g id="node6" class="node"><title>\\UIoT\\Handlers\\DatabaseHandler</title>
<polygon fill="none" stroke="black" points="810.5,-1172 692.5,-1172 692.5,-1136 810.5,-1136 810.5,-1172"/>
<text text-anchor="middle" x="751.5" y="-1151.2" font-family="Courier,monospace" font-size="11.00">DatabaseHandler</text>
</g>
<!-- \\UIoT\\Handlers\\RequestHandler -->
<g id="node7" class="node"><title>\\UIoT\\Handlers\\RequestHandler</title>
<polygon fill="none" stroke="black" points="807,-1118 696,-1118 696,-1082 807,-1082 807,-1118"/>
<text text-anchor="middle" x="751.5" y="-1097.2" font-family="Courier,monospace" font-size="11.00">RequestHandler</text>
</g>
<!-- \\UIoT\\Handlers\\ResponseHandler -->
<g id="node8" class="node"><title>\\UIoT\\Handlers\\ResponseHandler</title>
<polygon fill="none" stroke="black" points="810.5,-1064 692.5,-1064 692.5,-1028 810.5,-1028 810.5,-1064"/>
<text text-anchor="middle" x="751.5" y="-1043.2" font-family="Courier,monospace" font-size="11.00">ResponseHandler</text>
</g>
<!-- \\UIoT\\Interactions\\InsertInteraction -->
<g id="node9" class="node"><title>\\UIoT\\Interactions\\InsertInteraction</title>
<polygon fill="none" stroke="black" points="817,-984 686,-984 686,-948 817,-948 817,-984"/>
<text text-anchor="middle" x="751.5" y="-963.2" font-family="Courier,monospace" font-size="11.00">InsertInteraction</text>
</g>
<!-- \\UIoT\\Models\\InteractionModel -->
<g id="node36" class="node"><title>\\UIoT\\Models\\InteractionModel</title>
<polygon fill="none" stroke="black" points="573.5,-957 448.5,-957 448.5,-921 573.5,-921 573.5,-957"/>
<text text-anchor="start" x="477" y="-942.2" font-family="Courier,monospace" font-size="11.00">«abstract»</text>
<text text-anchor="start" x="456.5" y="-930.2" font-family="Courier,monospace" font-size="11.00">InteractionModel</text>
</g>
<!-- \\UIoT\\Interactions\\InsertInteraction&#45;&gt;\\UIoT\\Models\\InteractionModel -->
<g id="edge6" class="edge"><title>\\UIoT\\Interactions\\InsertInteraction&#45;&gt;\\UIoT\\Models\\InteractionModel</title>
<path fill="none" stroke="black" d="M685.958,-958.693C654.464,-955.128 616.471,-950.827 584.035,-947.155"/>
<polygon fill="none" stroke="black" points="584.044,-943.634 573.714,-945.986 583.257,-950.589 584.044,-943.634"/>
</g>
<!-- \\UIoT\\Interactions\\InsertServiceInteraction -->
<g id="node10" class="node"><title>\\UIoT\\Interactions\\InsertServiceInteraction</title>
<polygon fill="none" stroke="black" points="841,-930 662,-930 662,-894 841,-894 841,-930"/>
<text text-anchor="middle" x="751.5" y="-909.2" font-family="Courier,monospace" font-size="11.00">InsertServiceInteraction</text>
</g>
<!-- \\UIoT\\Interactions\\InsertServiceInteraction&#45;&gt;\\UIoT\\Models\\InteractionModel -->
<g id="edge7" class="edge"><title>\\UIoT\\Interactions\\InsertServiceInteraction&#45;&gt;\\UIoT\\Models\\InteractionModel</title>
<path fill="none" stroke="black" d="M661.691,-922.054C635.967,-924.966 608.216,-928.108 583.68,-930.885"/>
<polygon fill="none" stroke="black" points="583.277,-927.408 573.735,-932.011 584.065,-934.364 583.277,-927.408"/>
</g>
<!-- \\UIoT\\Interactions\\InsertTokenInteraction -->
<g id="node11" class="node"><title>\\UIoT\\Interactions\\InsertTokenInteraction</title>
<polygon fill="none" stroke="black" points="834,-876 669,-876 669,-840 834,-840 834,-876"/>
<text text-anchor="middle" x="751.5" y="-855.2" font-family="Courier,monospace" font-size="11.00">InsertTokenInteraction</text>
</g>
<!-- \\UIoT\\Interactions\\InsertTokenInteraction&#45;&gt;\\UIoT\\Models\\InteractionModel -->
<g id="edge8" class="edge"><title>\\UIoT\\Interactions\\InsertTokenInteraction&#45;&gt;\\UIoT\\Models\\InteractionModel</title>
<path fill="none" stroke="black" d="M676.653,-876.045C668.879,-878.716 661.194,-881.697 654,-885 630.699,-895.698 629.525,-906.804 606,-917 598.863,-920.093 591.225,-922.787 583.502,-925.126"/>
<polygon fill="none" stroke="black" points="582.372,-921.809 573.705,-927.902 584.281,-928.543 582.372,-921.809"/>
</g>
<!-- \\UIoT\\Interactions\\RemoveInteraction -->
<g id="node12" class="node"><title>\\UIoT\\Interactions\\RemoveInteraction</title>
<polygon fill="none" stroke="black" points="817,-822 686,-822 686,-786 817,-786 817,-822"/>
<text text-anchor="middle" x="751.5" y="-801.2" font-family="Courier,monospace" font-size="11.00">RemoveInteraction</text>
</g>
<!-- \\UIoT\\Interactions\\RemoveInteraction&#45;&gt;\\UIoT\\Models\\InteractionModel -->
<g id="edge9" class="edge"><title>\\UIoT\\Interactions\\RemoveInteraction&#45;&gt;\\UIoT\\Models\\InteractionModel</title>
<path fill="none" stroke="black" d="M685.844,-814.452C674.457,-818.342 663.293,-823.679 654,-831 619.616,-858.089 640.957,-890.655 606,-917 599.266,-922.075 591.548,-926.005 583.493,-929.044"/>
<polygon fill="none" stroke="black" points="582.311,-925.748 573.921,-932.218 584.514,-932.393 582.311,-925.748"/>
</g>
<!-- \\UIoT\\Interactions\\SearchInteraction -->
<g id="node13" class="node"><title>\\UIoT\\Interactions\\SearchInteraction</title>
<polygon fill="none" stroke="black" points="817,-768 686,-768 686,-732 817,-732 817,-768"/>
<text text-anchor="middle" x="751.5" y="-747.2" font-family="Courier,monospace" font-size="11.00">SearchInteraction</text>
</g>
<!-- \\UIoT\\Interactions\\SearchInteraction&#45;&gt;\\UIoT\\Models\\InteractionModel -->
<g id="edge10" class="edge"><title>\\UIoT\\Interactions\\SearchInteraction&#45;&gt;\\UIoT\\Models\\InteractionModel</title>
<path fill="none" stroke="black" d="M685.723,-758.808C674.082,-762.833 662.855,-768.64 654,-777 606.171,-822.156 654.787,-872.88 606,-917 599.407,-922.963 591.51,-927.399 583.134,-930.685"/>
<polygon fill="none" stroke="black" points="581.875,-927.416 573.517,-933.927 584.111,-934.049 581.875,-927.416"/>
</g>
<!-- \\UIoT\\Interactions\\UpdateInteraction -->
<g id="node14" class="node"><title>\\UIoT\\Interactions\\UpdateInteraction</title>
<polygon fill="none" stroke="black" points="817,-714 686,-714 686,-678 817,-678 817,-714"/>
<text text-anchor="middle" x="751.5" y="-693.2" font-family="Courier,monospace" font-size="11.00">UpdateInteraction</text>
</g>
<!-- \\UIoT\\Interactions\\UpdateInteraction&#45;&gt;\\UIoT\\Models\\InteractionModel -->
<g id="edge11" class="edge"><title>\\UIoT\\Interactions\\UpdateInteraction&#45;&gt;\\UIoT\\Models\\InteractionModel</title>
<path fill="none" stroke="black" d="M685.626,-704.032C673.854,-708.11 662.601,-714.135 654,-723 592.151,-786.75 669.203,-854.592 606,-917 599.588,-923.332 591.723,-927.974 583.298,-931.358"/>
<polygon fill="none" stroke="black" points="581.931,-928.126 573.596,-934.666 584.19,-934.751 581.931,-928.126"/>
</g>
<!-- \\UIoT\\Interactions\\UpdateTokenInteraction -->
<g id="node15" class="node"><title>\\UIoT\\Interactions\\UpdateTokenInteraction</title>
<polygon fill="none" stroke="black" points="834,-660 669,-660 669,-624 834,-624 834,-660"/>
<text text-anchor="middle" x="751.5" y="-639.2" font-family="Courier,monospace" font-size="11.00">UpdateTokenInteraction</text>
</g>
<!-- \\UIoT\\Interactions\\UpdateTokenInteraction&#45;&gt;\\UIoT\\Models\\InteractionModel -->
<g id="edge12" class="edge"><title>\\UIoT\\Interactions\\UpdateTokenInteraction&#45;&gt;\\UIoT\\Models\\InteractionModel</title>
<path fill="none" stroke="black" d="M668.591,-657.344C663.203,-660.55 658.244,-664.394 654,-669 577.92,-751.558 683.834,-836.093 606,-917 599.753,-923.494 591.983,-928.231 583.606,-931.662"/>
<polygon fill="none" stroke="black" points="582.246,-928.429 573.94,-935.005 584.534,-935.044 582.246,-928.429"/>
</g>
<!-- \\UIoT\\Interfaces\\FactoryInterface -->
<g id="node16" class="node"><title>\\UIoT\\Interfaces\\FactoryInterface</title>
<polygon fill="none" stroke="black" points="170.5,-1011 45.5,-1011 45.5,-975 170.5,-975 170.5,-1011"/>
<text text-anchor="middle" x="108" y="-990.2" font-family="Courier,monospace" font-size="11.00">FactoryInterface</text>
</g>
<!-- \\UIoT\\Interfaces\\InteractionInterface -->
<g id="node17" class="node"><title>\\UIoT\\Interfaces\\InteractionInterface</title>
<polygon fill="none" stroke="black" points="184,-957 32,-957 32,-921 184,-921 184,-957"/>
<text text-anchor="middle" x="108" y="-936.2" font-family="Courier,monospace" font-size="11.00">InteractionInterface</text>
</g>
<!-- \\UIoT\\Interfaces\\MessageInterface -->
<g id="node18" class="node"><title>\\UIoT\\Interfaces\\MessageInterface</title>
<polygon fill="none" stroke="black" points="170.5,-1065 45.5,-1065 45.5,-1029 170.5,-1029 170.5,-1065"/>
<text text-anchor="middle" x="108" y="-1044.2" font-family="Courier,monospace" font-size="11.00">MessageInterface</text>
</g>
<!-- \\UIoT\\Interfaces\\PropertyInterface -->
<g id="node19" class="node"><title>\\UIoT\\Interfaces\\PropertyInterface</title>
<polygon fill="none" stroke="black" points="173.5,-1119 42.5,-1119 42.5,-1083 173.5,-1083 173.5,-1119"/>
<text text-anchor="middle" x="108" y="-1098.2" font-family="Courier,monospace" font-size="11.00">PropertyInterface</text>
</g>
<!-- \\UIoT\\Interfaces\\ResourceInterface -->
<g id="node20" class="node"><title>\\UIoT\\Interfaces\\ResourceInterface</title>
<polygon fill="none" stroke="black" points="173.5,-1173 42.5,-1173 42.5,-1137 173.5,-1137 173.5,-1173"/>
<text text-anchor="middle" x="108" y="-1152.2" font-family="Courier,monospace" font-size="11.00">ResourceInterface</text>
</g>
<!-- \\UIoT\\Interfaces\\SettingsInterface -->
<g id="node21" class="node"><title>\\UIoT\\Interfaces\\SettingsInterface</title>
<polygon fill="none" stroke="black" points="173.5,-903 42.5,-903 42.5,-867 173.5,-867 173.5,-903"/>
<text text-anchor="middle" x="108" y="-882.2" font-family="Courier,monospace" font-size="11.00">SettingsInterface</text>
</g>
<!-- \\UIoT\\Interfaces\\TokenInterface -->
<g id="node22" class="node"><title>\\UIoT\\Interfaces\\TokenInterface</title>
<polygon fill="none" stroke="black" points="163.5,-1227 52.5,-1227 52.5,-1191 163.5,-1191 163.5,-1227"/>
<text text-anchor="middle" x="108" y="-1206.2" font-family="Courier,monospace" font-size="11.00">TokenInterface</text>
</g>
<!-- \\UIoT\\Managers\\DatabaseManager -->
<g id="node23" class="node"><title>\\UIoT\\Managers\\DatabaseManager</title>
<polygon fill="none" stroke="black" points="810.5,-580 692.5,-580 692.5,-544 810.5,-544 810.5,-580"/>
<text text-anchor="middle" x="751.5" y="-559.2" font-family="Courier,monospace" font-size="11.00">DatabaseManager</text>
</g>
<!-- \\UIoT\\Managers\\InstructionManager -->
<g id="node24" class="node"><title>\\UIoT\\Managers\\InstructionManager</title>
<polygon fill="none" stroke="black" points="820.5,-526 682.5,-526 682.5,-490 820.5,-490 820.5,-526"/>
<text text-anchor="middle" x="751.5" y="-505.2" font-family="Courier,monospace" font-size="11.00">InstructionManager</text>
</g>
<!-- \\UIoT\\Managers\\InteractionManager -->
<g id="node25" class="node"><title>\\UIoT\\Managers\\InteractionManager</title>
<polygon fill="none" stroke="black" points="820.5,-472 682.5,-472 682.5,-436 820.5,-436 820.5,-472"/>
<text text-anchor="middle" x="751.5" y="-451.2" font-family="Courier,monospace" font-size="11.00">InteractionManager</text>
</g>
<!-- \\UIoT\\Managers\\RaiseManager -->
<g id="node26" class="node"><title>\\UIoT\\Managers\\RaiseManager</title>
<polygon fill="none" stroke="black" points="800.5,-418 702.5,-418 702.5,-382 800.5,-382 800.5,-418"/>
<text text-anchor="middle" x="751.5" y="-397.2" font-family="Courier,monospace" font-size="11.00">RaiseManager</text>
</g>
<!-- \\UIoT\\Managers\\SettingsManager -->
<g id="node27" class="node"><title>\\UIoT\\Managers\\SettingsManager</title>
<polygon fill="none" stroke="black" points="810.5,-364 692.5,-364 692.5,-328 810.5,-328 810.5,-364"/>
<text text-anchor="middle" x="751.5" y="-343.2" font-family="Courier,monospace" font-size="11.00">SettingsManager</text>
</g>
<!-- \\UIoT\\Managers\\TokenManager -->
<g id="node28" class="node"><title>\\UIoT\\Managers\\TokenManager</title>
<polygon fill="none" stroke="black" points="800.5,-310 702.5,-310 702.5,-274 800.5,-274 800.5,-310"/>
<text text-anchor="middle" x="751.5" y="-289.2" font-family="Courier,monospace" font-size="11.00">TokenManager</text>
</g>
<!-- \\UIoT\\Mappers\\Constants -->
<g id="node29" class="node"><title>\\UIoT\\Mappers\\Constants</title>
<polygon fill="none" stroke="black" points="790,-230 713,-230 713,-194 790,-194 790,-230"/>
<text text-anchor="middle" x="751.5" y="-209.2" font-family="Courier,monospace" font-size="11.00">Constants</text>
</g>
<!-- \\UIoT\\Mappers\\Json -->
<g id="node30" class="node"><title>\\UIoT\\Mappers\\Json</title>
<polygon fill="none" stroke="black" points="778.5,-176 724.5,-176 724.5,-140 778.5,-140 778.5,-176"/>
<text text-anchor="middle" x="751.5" y="-155.2" font-family="Courier,monospace" font-size="11.00">Json</text>
</g>
<!-- \\UIoT\\Mappers\\Security -->
<g id="node31" class="node"><title>\\UIoT\\Mappers\\Security</title>
<polygon fill="none" stroke="black" points="787,-122 716,-122 716,-86 787,-86 787,-122"/>
<text text-anchor="middle" x="751.5" y="-101.2" font-family="Courier,monospace" font-size="11.00">Security</text>
</g>
<!-- \\UIoT\\Mappers\\Time -->
<g id="node32" class="node"><title>\\UIoT\\Mappers\\Time</title>
<polygon fill="none" stroke="black" points="778.5,-68 724.5,-68 724.5,-32 778.5,-32 778.5,-68"/>
<text text-anchor="middle" x="751.5" y="-47.2" font-family="Courier,monospace" font-size="11.00">Time</text>
</g>
<!-- \\UIoT\\Models\\Settings\\DatabaseSettingsModel -->
<g id="node33" class="node"><title>\\UIoT\\Models\\Settings\\DatabaseSettingsModel</title>
<polygon fill="none" stroke="black" points="590,-885 432,-885 432,-849 590,-849 590,-885"/>
<text text-anchor="middle" x="511" y="-864.2" font-family="Courier,monospace" font-size="11.00">DatabaseSettingsModel</text>
</g>
<!-- \\UIoT\\Models\\SettingsModel -->
<g id="node40" class="node"><title>\\UIoT\\Models\\SettingsModel</title>
<polygon fill="none" stroke="black" points="360,-885 256,-885 256,-849 360,-849 360,-885"/>
<text text-anchor="start" x="274" y="-870.2" font-family="Courier,monospace" font-size="11.00">«abstract»</text>
<text text-anchor="start" x="264" y="-858.2" font-family="Courier,monospace" font-size="11.00">SettingsModel</text>
</g>
<!-- \\UIoT\\Models\\Settings\\DatabaseSettingsModel&#45;&gt;\\UIoT\\Models\\SettingsModel -->
<g id="edge18" class="edge"><title>\\UIoT\\Models\\Settings\\DatabaseSettingsModel&#45;&gt;\\UIoT\\Models\\SettingsModel</title>
<path fill="none" stroke="black" d="M431.713,-867C411.343,-867 389.693,-867 370.339,-867"/>
<polygon fill="none" stroke="black" points="370.147,-863.5 360.147,-867 370.147,-870.5 370.147,-863.5"/>
</g>
<!-- \\UIoT\\Models\\Settings\\SecuritySettingsModel -->
<g id="node34" class="node"><title>\\UIoT\\Models\\Settings\\SecuritySettingsModel</title>
<polygon fill="none" stroke="black" points="590,-831 432,-831 432,-795 590,-795 590,-831"/>
<text text-anchor="middle" x="511" y="-810.2" font-family="Courier,monospace" font-size="11.00">SecuritySettingsModel</text>
</g>
<!-- \\UIoT\\Models\\Settings\\SecuritySettingsModel&#45;&gt;\\UIoT\\Models\\SettingsModel -->
<g id="edge19" class="edge"><title>\\UIoT\\Models\\Settings\\SecuritySettingsModel&#45;&gt;\\UIoT\\Models\\SettingsModel</title>
<path fill="none" stroke="black" d="M442.79,-831.056C419.329,-837.359 393.138,-844.396 370.193,-850.56"/>
<polygon fill="none" stroke="black" points="368.988,-847.26 360.239,-853.234 370.804,-854.02 368.988,-847.26"/>
</g>
<!-- \\UIoT\\Models\\FactoryModel&#45;&gt;\\UIoT\\Interfaces\\FactoryInterface -->
<g id="edge13" class="edge"><title>\\UIoT\\Models\\FactoryModel&#45;&gt;\\UIoT\\Interfaces\\FactoryInterface</title>
<path fill="none" stroke="black" stroke-dasharray="1,5" d="M461.63,-993C391.713,-993 261.921,-993 180.804,-993"/>
<polygon fill="none" stroke="black" points="180.671,-989.5 170.671,-993 180.671,-996.5 180.671,-989.5"/>
</g>
<!-- \\UIoT\\Models\\InteractionModel&#45;&gt;\\UIoT\\Interfaces\\InteractionInterface -->
<g id="edge14" class="edge"><title>\\UIoT\\Models\\InteractionModel&#45;&gt;\\UIoT\\Interfaces\\InteractionInterface</title>
<path fill="none" stroke="black" stroke-dasharray="1,5" d="M448.223,-939C380.205,-939 270.411,-939 194.234,-939"/>
<polygon fill="none" stroke="black" points="194.183,-935.5 184.183,-939 194.183,-942.5 194.183,-935.5"/>
</g>
<!-- \\UIoT\\Models\\MessageModel -->
<g id="node37" class="node"><title>\\UIoT\\Models\\MessageModel</title>
<polygon fill="none" stroke="black" points="560,-1065 462,-1065 462,-1029 560,-1029 560,-1065"/>
<text text-anchor="middle" x="511" y="-1044.2" font-family="Courier,monospace" font-size="11.00">MessageModel</text>
</g>
<!-- \\UIoT\\Models\\MessageModel&#45;&gt;\\UIoT\\Interfaces\\MessageInterface -->
<g id="edge15" class="edge"><title>\\UIoT\\Models\\MessageModel&#45;&gt;\\UIoT\\Interfaces\\MessageInterface</title>
<path fill="none" stroke="black" stroke-dasharray="1,5" d="M461.63,-1047C391.713,-1047 261.921,-1047 180.804,-1047"/>
<polygon fill="none" stroke="black" points="180.671,-1043.5 170.671,-1047 180.671,-1050.5 180.671,-1043.5"/>
</g>
<!-- \\UIoT\\Models\\PropertyModel -->
<g id="node38" class="node"><title>\\UIoT\\Models\\PropertyModel</title>
<polygon fill="none" stroke="black" points="563,-1119 459,-1119 459,-1083 563,-1083 563,-1119"/>
<text text-anchor="middle" x="511" y="-1098.2" font-family="Courier,monospace" font-size="11.00">PropertyModel</text>
</g>
<!-- \\UIoT\\Models\\PropertyModel&#45;&gt;\\UIoT\\Interfaces\\PropertyInterface -->
<g id="edge16" class="edge"><title>\\UIoT\\Models\\PropertyModel&#45;&gt;\\UIoT\\Interfaces\\PropertyInterface</title>
<path fill="none" stroke="black" stroke-dasharray="1,5" d="M458.806,-1101C389.152,-1101 264.036,-1101 183.845,-1101"/>
<polygon fill="none" stroke="black" points="183.811,-1097.5 173.811,-1101 183.81,-1104.5 183.811,-1097.5"/>
</g>
<!-- \\UIoT\\Models\\ResourceModel -->
<g id="node39" class="node"><title>\\UIoT\\Models\\ResourceModel</title>
<polygon fill="none" stroke="black" points="563,-1173 459,-1173 459,-1137 563,-1137 563,-1173"/>
<text text-anchor="middle" x="511" y="-1152.2" font-family="Courier,monospace" font-size="11.00">ResourceModel</text>
</g>
<!-- \\UIoT\\Models\\ResourceModel&#45;&gt;\\UIoT\\Interfaces\\ResourceInterface -->
<g id="edge17" class="edge"><title>\\UIoT\\Models\\ResourceModel&#45;&gt;\\UIoT\\Interfaces\\ResourceInterface</title>
<path fill="none" stroke="black" stroke-dasharray="1,5" d="M458.806,-1155C389.152,-1155 264.036,-1155 183.845,-1155"/>
<polygon fill="none" stroke="black" points="183.811,-1151.5 173.811,-1155 183.81,-1158.5 183.811,-1151.5"/>
</g>
<!-- \\UIoT\\Models\\SettingsModel&#45;&gt;\\UIoT\\Interfaces\\SettingsInterface -->
<g id="edge20" class="edge"><title>\\UIoT\\Models\\SettingsModel&#45;&gt;\\UIoT\\Interfaces\\SettingsInterface</title>
<path fill="none" stroke="black" stroke-dasharray="1,5" d="M255.753,-871.659C233.796,-873.655 207.718,-876.026 183.679,-878.211"/>
<polygon fill="none" stroke="black" points="183.162,-874.744 173.52,-879.135 183.795,-881.715 183.162,-874.744"/>
</g>
<!-- \\UIoT\\Models\\TokenModel -->
<g id="node41" class="node"><title>\\UIoT\\Models\\TokenModel</title>
<polygon fill="none" stroke="black" points="553,-1227 469,-1227 469,-1191 553,-1191 553,-1227"/>
<text text-anchor="middle" x="511" y="-1206.2" font-family="Courier,monospace" font-size="11.00">TokenModel</text>
</g>
<!-- \\UIoT\\Models\\TokenModel&#45;&gt;\\UIoT\\Interfaces\\TokenInterface -->
<g id="edge21" class="edge"><title>\\UIoT\\Models\\TokenModel&#45;&gt;\\UIoT\\Interfaces\\TokenInterface</title>
<path fill="none" stroke="black" stroke-dasharray="1,5" d="M468.97,-1209C399.221,-1209 257.013,-1209 173.735,-1209"/>
<polygon fill="none" stroke="black" points="173.632,-1205.5 163.632,-1209 173.632,-1212.5 173.632,-1205.5"/>
</g>
</g>
</svg>
